<svg xmlns="http://www.w3.org/2000/svg" fill="none" viewBox="0 0 20 20"><path fill="#FFB900" d="M10 5 8.59 3.59A2 2 0 0 0 7.17 3H2a1 1 0 0 0-1 1v12a1 1 0 0 0 1 1h16a1 1 0 0 0 1-1V6a1 1 0 0 0-1-1h-8z"/><path fill="#FFD75E" d="M10 5 8.59 6.41A2 2 0 0 1 7.17 7H1v9a1 1 0 0 0 1 1h16a1 1 0 0 0 1-1V6a1 1 0 0 0-1-1h-8z"/><path fill="url(#a)" d="M10 5 8.59 6.41A2 2 0 0 1 7.17 7H1v9a1 1 0 0 0 1 1h16a1 1 0 0 0 1-1V6a1 1 0 0 0-1-1h-8z" style="mix-blend-mode:multiply"/><path fill="#E67628" d="M2 16.5a1.46 1.46 0 0 1-1-.37A1 1 0 0 0 2 17h16a1 1 0 0 0 1-.87 1.46 1.46 0 0 1-1 .37H2z"/><path fill="#fff" d="M8.84 6.91 10.75 5H10L8.59 6.41A2 2 0 0 1 7.17 7H1v.5h6.42a2 2 0 0 0 1.42-.59z" opacity=".4"/><path fill="#E67628" d="M2 16.5a1.46 1.46 0 0 1-1-.37A1 1 0 0 0 2 17h16a1 1 0 0 0 1-.87 1.46 1.46 0 0 1-1 .37H2z"/><path fill="#FFD75E" d="M14 10a1 1 0 1 0 0-2 1 1 0 0 0 0 2z"/><path fill="#BF5712" d="M15.5 10.869h-.89a1.997 1.997 0 0 0 1.092-.847 1.967 1.967 0 0 0-.402-2.546 2.011 2.011 0 0 0-2.6 0 1.967 1.967 0 0 0-.402 2.546c.25.402.638.703 1.092.847h-.89c-.396 0-.776.155-1.057.432A1.48 1.48 0 0 0 11 12.345v.575c.021.484.229.941.58 1.278a3.32 3.32 0 0 0 2.42.793c3 0 3-2.051 3-2.071v-.575a1.479 1.479 0 0 0-.443-1.044 1.507 1.507 0 0 0-1.057-.432zM13 9.046a.984.984 0 0 1 .617-.916 1.009 1.009 0 0 1 1.09.215.988.988 0 0 1-.707 1.691c-.265 0-.52-.104-.707-.29a.986.986 0 0 1-.293-.7zm3 3.904S16 14 14 14s-2-.991-2-1.08v-.575a.482.482 0 0 1 .31-.451.495.495 0 0 1 .19-.034h3a.495.495 0 0 1 .462.297c.025.06.038.123.038.188v.604z"/><defs><linearGradient id="a" x1="10" x2="10" y1="5" y2="17" gradientUnits="userSpaceOnUse"><stop stop-color="#fff" stop-opacity="0"/><stop offset="1" stop-color="#FFD75E" stop-opacity=".3"/></linearGradient></defs></svg>